{
    "asset" : {
        "generator" : "Khronos glTF Blender I/O v1.5.17",
        "version" : "2.0"
    },
    "scene" : 0,
    "scenes" : [
        {
            "name" : "Scene",
            "nodes" : [
                0
            ]
        }
    ],
    "nodes" : [
        {
            "mesh" : 0,
            "name" : "gl.png",
            "rotation" : [
                0.6981509923934937,
                -0.014467642642557621,
                0.014830286614596844,
                0.7156506776809692
            ],
            "translation" : [
                0.7028834819793701,
                0.5976482629776001,
                -0.14021717011928558
            ]
        }
    ],
    "materials" : [
        {
            "doubleSided" : true,
            "name" : "Material.002",
            "pbrMetallicRoughness" : {
                "baseColorTexture" : {
                    "index" : 0
                },
                "metallicFactor" : 0,
                "roughnessFactor" : 0.5
            }
        }
    ],
    "meshes" : [
        {
            "name" : "gl.png_mesh",
            "primitives" : [
                {
                    "attributes" : {
                        "POSITION" : 0,
                        "NORMAL" : 1,
                        "TEXCOORD_0" : 2
                    },
                    "indices" : 3,
                    "material" : 0
                }
            ]
        }
    ],
    "textures" : [
        {
            "sampler" : 0,
            "source" : 0
        }
    ],
    "images" : [
        {
            "bufferView" : 4,
            "mimeType" : "image/png",
            "name" : "gl"
        }
    ],
    "accessors" : [
        {
            "bufferView" : 0,
            "componentType" : 5126,
            "count" : 3066,
            "max" : [
                2.0826640129089355,
                0.639575183391571,
                0.8058409690856934
            ],
            "min" : [
                -2.2517340183258057,
                -0.6543923020362854,
                -0.8057926893234253
            ],
            "type" : "VEC3"
        },
        {
            "bufferView" : 1,
            "componentType" : 5126,
            "count" : 3066,
            "type" : "VEC3"
        },
        {
            "bufferView" : 2,
            "componentType" : 5126,
            "count" : 3066,
            "type" : "VEC2"
        },
        {
            "bufferView" : 3,
            "componentType" : 5123,
            "count" : 3066,
            "type" : "SCALAR"
        }
    ],
    "bufferViews" : [
        {
            "buffer" : 0,
            "byteLength" : 36792,
            "byteOffset" : 0
        },
        {
            "buffer" : 0,
            "byteLength" : 36792,
            "byteOffset" : 36792
        },
        {
            "buffer" : 0,
            "byteLength" : 24528,
            "byteOffset" : 73584
        },
        {
            "buffer" : 0,
            "byteLength" : 6132,
            "byteOffset" : 98112
        },
        {
            "buffer" : 0,
            "byteLength" : 460368,
            "byteOffset" : 104244
        }
    ],
    "samplers" : [
        {
            "magFilter" : 9729,
            "minFilter" : 9987
        }
    ],
    "buffers" : [
        {
            "byteLength" : 564612,
            "uri" : "data:application/octet-stream;base64,"
        }
    ]
}
