{
    "asset" : {
        "generator" : "Khronos glTF Blender I/O v1.5.17",
        "version" : "2.0"
    },
    "scene" : 0,
    "scenes" : [
        {
            "name" : "Scene",
            "nodes" : [
                0
            ]
        }
    ],
    "nodes" : [
        {
            "mesh" : 0,
            "name" : "m134.png",
            "rotation" : [
                -0.7059248089790344,
                0.003300286130979657,
                -0.0034538377076387405,
                -0.7082706689834595
            ],
            "translation" : [
                0.44552427530288696,
                0.4690856635570526,
                0.017437472939491272
            ]
        }
    ],
    "materials" : [
        {
            "doubleSided" : true,
            "name" : "Material.003",
            "pbrMetallicRoughness" : {
                "baseColorTexture" : {
                    "index" : 0
                },
                "metallicFactor" : 0,
                "roughnessFactor" : 0.5
            }
        }
    ],
    "meshes" : [
        {
            "name" : "m134.png_mesh",
            "primitives" : [
                {
                    "attributes" : {
                        "POSITION" : 0,
                        "NORMAL" : 1,
                        "TEXCOORD_0" : 2
                    },
                    "indices" : 3,
                    "material" : 0
                }
            ]
        }
    ],
    "textures" : [
        {
            "sampler" : 0,
            "source" : 0
        }
    ],
    "images" : [
        {
            "bufferView" : 4,
            "mimeType" : "image/png",
            "name" : "m134"
        }
    ],
    "accessors" : [
        {
            "bufferView" : 0,
            "componentType" : 5126,
            "count" : 3021,
            "max" : [
                2.862318277359009,
                1.0159080028533936,
                0.985489547252655
            ],
            "min" : [
                -3.082141637802124,
                -1.0022718906402588,
                -1.4342155456542969
            ],
            "type" : "VEC3"
        },
        {
            "bufferView" : 1,
            "componentType" : 5126,
            "count" : 3021,
            "type" : "VEC3"
        },
        {
            "bufferView" : 2,
            "componentType" : 5126,
            "count" : 3021,
            "type" : "VEC2"
        },
        {
            "bufferView" : 3,
            "componentType" : 5123,
            "count" : 3258,
            "type" : "SCALAR"
        }
    ],
    "bufferViews" : [
        {
            "buffer" : 0,
            "byteLength" : 36252,
            "byteOffset" : 0
        },
        {
            "buffer" : 0,
            "byteLength" : 36252,
            "byteOffset" : 36252
        },
        {
            "buffer" : 0,
            "byteLength" : 24168,
            "byteOffset" : 72504
        },
        {
            "buffer" : 0,
            "byteLength" : 6516,
            "byteOffset" : 96672
        },
        {
            "buffer" : 0,
            "byteLength" : 1067748,
            "byteOffset" : 103188
        }
    ],
    "samplers" : [
        {
            "magFilter" : 9729,
            "minFilter" : 9987
        }
    ],
    "buffers" : [
        {
            "byteLength" : 1170936,
            "uri" : "data:application/octet-stream;base64,"
        }
    ]
}
