{
    "asset" : {
        "generator" : "Khronos glTF Blender I/O v1.5.17",
        "version" : "2.0"
    },
    "scene" : 0,
    "scenes" : [
        {
            "name" : "Scene",
            "nodes" : [
                0
            ]
        }
    ],
    "nodes" : [
        {
            "mesh" : 0,
            "name" : "colt.png",
            "rotation" : [
                0.7051265835762024,
                0,
                0,
                0.7090815305709839
            ],
            "translation" : [
                0.7429817318916321,
                0.4528035521507263,
                0.005830094218254089
            ]
        }
    ],
    "materials" : [
        {
            "doubleSided" : true,
            "name" : "Material.001",
            "pbrMetallicRoughness" : {
                "baseColorTexture" : {
                    "index" : 0
                },
                "metallicFactor" : 0.19117647409439087,
                "roughnessFactor" : 0.5441176891326904
            }
        }
    ],
    "meshes" : [
        {
            "name" : "colt.png_mesh",
            "primitives" : [
                {
                    "attributes" : {
                        "POSITION" : 0,
                        "NORMAL" : 1,
                        "TEXCOORD_0" : 2
                    },
                    "indices" : 3,
                    "material" : 0
                }
            ]
        }
    ],
    "textures" : [
        {
            "sampler" : 0,
            "source" : 0
        }
    ],
    "images" : [
        {
            "bufferView" : 4,
            "mimeType" : "image/png",
            "name" : "colt"
        }
    ],
    "accessors" : [
        {
            "bufferView" : 0,
            "componentType" : 5126,
            "count" : 2225,
            "max" : [
                1.6594123840332031,
                0.1929108202457428,
                0.7967990636825562
            ],
            "min" : [
                -0.9934619069099426,
                -0.19503118097782135,
                -0.510536789894104
            ],
            "type" : "VEC3"
        },
        {
            "bufferView" : 1,
            "componentType" : 5126,
            "count" : 2225,
            "type" : "VEC3"
        },
        {
            "bufferView" : 2,
            "componentType" : 5126,
            "count" : 2225,
            "type" : "VEC2"
        },
        {
            "bufferView" : 3,
            "componentType" : 5123,
            "count" : 2241,
            "type" : "SCALAR"
        }
    ],
    "bufferViews" : [
        {
            "buffer" : 0,
            "byteLength" : 26700,
            "byteOffset" : 0
        },
        {
            "buffer" : 0,
            "byteLength" : 26700,
            "byteOffset" : 26700
        },
        {
            "buffer" : 0,
            "byteLength" : 17800,
            "byteOffset" : 53400
        },
        {
            "buffer" : 0,
            "byteLength" : 4482,
            "byteOffset" : 71200
        },
        {
            "buffer" : 0,
            "byteLength" : 639761,
            "byteOffset" : 75684
        }
    ],
    "samplers" : [
        {
            "magFilter" : 9729,
            "minFilter" : 9987
        }
    ],
    "buffers" : [
        {
            "byteLength" : 715448,
            "uri" : "data:application/octet-stream;base64,"
        }
    ]
}
